# xmcd
#
# Track frame offsets:
# 150
# 11314
# 26795
# 41439
# 55411
# 69270
# 82016
# 92876
# 107416
# 120492
# 134505
# 154338
# 173011
# 187959
# 207203
# 225424
# 237684
# 254735
# 264411
# 278011
# 289751
# 308412
# 323349
#
# Disc length: 4505 seconds
#
# Revision: 1
# Processed by: cddbd v1.4PL0 Copyright (c) Steve Scherf et al.
# Submitted via: Easy CD Ripper 1.45
#
DISCID=35119717
DTITLE=Вахтанг Кикабидзе - Grand collection
DYEAR=2002
DGENRE=Ballad
TTITLE0=Вахтанг Кикабидзе - Песня из к-ф -Мимино-
TTITLE1=Вахтанг Кикабидзе - Проводы любви
TTITLE2=Вахтанг Кикабидзе - Пожелание
TTITLE3=Вахтанг Кикабидзе - Мои года - мое богатство
TTITLE4=Вахтанг Кикабидзе - Я жизнь не тороплю
TTITLE5=Вахтанг Кикабидзе - Родимая земля
TTITLE6=Вахтанг Кикабидзе - Останься молодость
TTITLE7=Вахтанг Кикабидзе - Вот и весь разговор
TTITLE8=Вахтанг Кикабидзе - Приходит в зрелости пора ...
TTITLE9=Вахтанг Кикабидзе - Приходите ко мне ночевать
TTITLE10=Вахтанг Кикабидзе - Письмо из экспедиции
TTITLE11=Вахтанг Кикабидзе - У моря
TTITLE12=Вахтанг Кикабидзе - Танго любви
TTITLE13=Вахтанг Кикабидзе - Ах, эти сложные года
TTITLE14=Вахтанг Кикабидзе - Одуванчики
TTITLE15=Вахтанг Кикабидзе - Отцовская песня
TTITLE16=Вахтанг Кикабидзе - Письмо другу
TTITLE17=Вахтанг Кикабидзе - Секрет счастья
TTITLE18=Вахтанг Кикабидзе - Тишина
TTITLE19=Вахтанг Кикабидзе - Наши дети
TTITLE20=Вахтанг Кикабидзе - Доброй ночи москвичи
TTITLE21=Вахтанг Кикабидзе - Цыганочка
TTITLE22=Вахтанг Кикабидзе - Я пьян от любви
EXTD=
EXTT0=
EXTT1=
EXTT2=
EXTT3=
EXTT4=
EXTT5=
EXTT6=
EXTT7=
EXTT8=
EXTT9=
EXTT10=
EXTT11=
EXTT12=
EXTT13=
EXTT14=
EXTT15=
EXTT16=
EXTT17=
EXTT18=
EXTT19=
EXTT20=
EXTT21=
EXTT22=
PLAYORDER=
